<svg width="640" height="640" viewBox="0 0 640 640" fill="none" xmlns="http://www.w3.org/2000/svg">
<path fill-rule="evenodd" clip-rule="evenodd" d="M100 80L540 0V600H580V640H540H360V520H280V640H100H60V600H100V80ZM180 380C168.954 380 160 388.954 160 400V440C160 451.046 168.954 460 180 460H460C471.046 460 480 451.046 480 440V400C480 388.954 471.046 380 460 380H180ZM200 440C211.046 440 220 431.046 220 420C220 408.954 211.046 400 200 400C188.954 400 180 408.954 180 420C180 431.046 188.954 440 200 440ZM280 420C280 431.046 271.046 440 260 440C248.954 440 240 431.046 240 420C240 408.954 248.954 400 260 400C271.046 400 280 408.954 280 420ZM360 440C348.954 440 340 431.046 340 420C340 408.954 348.954 400 360 400H440C451.046 400 460 408.954 460 420C460 431.046 451.046 440 440 440H360ZM160 300C160 288.954 168.954 280 180 280H460C471.046 280 480 288.954 480 300V340C480 351.046 471.046 360 460 360H180C168.954 360 160 351.046 160 340V300ZM220 320C220 331.046 211.046 340 200 340C188.954 340 180 331.046 180 320C180 308.954 188.954 300 200 300C211.046 300 220 308.954 220 320ZM260 340C271.046 340 280 331.046 280 320C280 308.954 271.046 300 260 300C248.954 300 240 308.954 240 320C240 331.046 248.954 340 260 340ZM340 320C340 331.046 348.954 340 360 340H440C451.046 340 460 331.046 460 320C460 308.954 451.046 300 440 300H360C348.954 300 340 308.954 340 320ZM180 180C168.954 180 160 188.954 160 200V240C160 251.046 168.954 260 180 260H460C471.046 260 480 251.046 480 240V200C480 188.954 471.046 180 460 180H180ZM200 240C211.046 240 220 231.046 220 220C220 208.954 211.046 200 200 200C188.954 200 180 208.954 180 220C180 231.046 188.954 240 200 240ZM280 220C280 231.046 271.046 240 260 240C248.954 240 240 231.046 240 220C240 208.954 248.954 200 260 200C271.046 200 280 208.954 280 220ZM360 240C348.954 240 340 231.046 340 220C340 208.954 348.954 200 360 200H440C451.046 200 460 208.954 460 220C460 231.046 451.046 240 440 240H360Z" fill="#00AB6B"/>
</svg>
